<?xml version="1.0" encoding="UTF-8"?>
<svg width="458px" height="180px" viewBox="0 0 458 180" version="1.1"
    xmlns="http://www.w3.org/2000/svg" xmlns:xlink="http://www.w3.org/1999/xlink">
    <title>编组 38</title>
    <style>
        @keyframes loading {
        0% { opacity: 1; }
        50% { opacity: 0.5; }
        100% { opacity: 1; }
        }
        .loading-animation {
        animation: loading 1.5s infinite;
        }
    </style>
    <g id="0524-pc端" stroke="none" stroke-width="1" fill="none" fill-rule="evenodd"
        opacity="0.099999994">
        <g id="首页-浅色-骨架屏" transform="translate(-919.000000, -386.000000)">
            <g id="脑图" transform="translate(888.000000, 88.000000)">
                <g id="编组-38" transform="translate(31.000000, 298.000000)">
                    <rect id="矩形" fill="#000000" x="0" y="78" width="120" height="32" rx="8"
                        class="loading-animation"></rect>
                    <rect id="矩形备份-4" fill="#000000" x="184" y="0" width="110" height="24" rx="6"
                        class="loading-animation"></rect>
                    <g id="编组-37" transform="translate(310.000000, 24.000000)">
                        <rect id="矩形备份-14" fill="#000000" x="48" y="0" width="100" height="16"
                            rx="4" class="loading-animation"></rect>
                        <rect id="矩形备份-15" fill="#000000" x="48" y="32" width="100" height="16"
                            rx="4" class="loading-animation"></rect>
                        <rect id="矩形备份-16" fill="#000000" x="48" y="64" width="100" height="16"
                            rx="4" class="loading-animation"></rect>
                        <g id="编组-36备份" transform="translate(0.000000, 10.000000)" stroke="#000000"
                            stroke-linejoin="round" stroke-width="2">
                            <path
                                d="M32,0 L22,0 C19.790861,4.05812251e-16 18,1.790861 18,4 L18,56 C18,58.209139 19.790861,60 22,60 L32,60 L32,60"
                                id="路径-2" stroke-linecap="round"></path>
                            <line x1="17" y1="30.5" x2="2.90184543e-14" y2="30.5" id="路径-6"></line>
                        </g>
                    </g>
                    <rect id="矩形备份-5" fill="#000000" x="184" y="52" width="110" height="24" rx="6"
                        class="loading-animation"></rect>
                    <rect id="矩形备份-6" fill="#000000" x="184" y="104" width="110" height="24" rx="6"
                        class="loading-animation"></rect>
                    <rect id="矩形备份-10" fill="#000000" x="184" y="156" width="110" height="24" rx="6"
                        class="loading-animation"></rect>
                    <g id="编组-36" transform="translate(136.000000, 10.000000)" stroke="#000000"
                        stroke-linejoin="round" stroke-width="2">
                        <path
                            d="M32,0 L22,0 C19.790861,4.05812251e-16 18,1.790861 18,4 L18,160 C18,162.209139 19.790861,164 22,164 L32,164 L32,164"
                            id="路径-2" stroke-linecap="round"></path>
                        <line x1="17" y1="82" x2="2.90184543e-14" y2="82" id="路径-6"></line>
                    </g>
                </g>
            </g>
        </g>
    </g>
</svg>